<svg xmlns="http://www.w3.org/2000/svg" xmlns:xlink="http://www.w3.org/1999/xlink" width="840" height="602.75"><rect width="840" height="602.75" rx="5" ry="5" class="a"/><svg y="0%" x="0%"><circle cx="20" cy="20" r="6" fill="#ff5f58"/><circle cx="40" cy="20" r="6" fill="#ffbd2e"/><circle cx="60" cy="20" r="6" fill="#18c132"/></svg><svg height="542.75" viewBox="0 0 80 54.275" width="800" x="15" xmlns="http://www.w3.org/2000/svg" xmlns:xlink="http://www.w3.org/1999/xlink" y="50"><style>@keyframes m{0%{transform:translateX(0)}23.9%{transform:translateX(-80px)}24%{transform:translateX(-160px)}25.1%{transform:translateX(-400px)}32.4%{transform:translateX(-480px)}34.4%{transform:translateX(-560px)}35.9%{transform:translateX(-640px)}39.6%{transform:translateX(-720px)}43.1%{transform:translateX(-800px)}47.7%{transform:translateX(-880px)}52.8%{transform:translateX(-960px)}56.6%{transform:translateX(-1200px)}74%{transform:translateX(-1440px)}75%{transform:translateX(-1600px)}to{transform:translateX(-1680px)}}.a{fill:#282d35}.f{fill:#b9c0cb;white-space:pre}.g{fill:#71bef2}.h,.i,.j{white-space:pre}.i,.j{fill:#71bef2}.j{fill:#a8cc8c}</style><g font-family="Monaco,Consolas,Menlo,'Bitstream Vera Sans Mono','Powerline Symbols',monospace" font-size="1.67"><defs><symbol id="1">0<text y="1.67" class="f">pi-dal@pi-dal-MacBookAir</text><path class="g" d="M26.052 0h4v2.171h-4z"/><text x="26.052" y="1.67" class="h"> ~</text><text x="30.06" y="1.67" class="i"></text></symbol><symbol id="2">0<text y="1.67" class="f">pi-dal@pi-dal-MacBookAir</text><path class="g" d="M26.052 0h4v2.171h-4z"/><text x="26.052" y="1.67" class="h"> ~</text><text x="30.06" y="1.67" class="i"></text><text x="32.064" y="1.67" class="f">brew</text><text x="37.074" y="1.67" class="j">-h</text></symbol><symbol id="3">0<text y="1.67" class="f">pi-dal@pi-dal-MacBookAir</text><path class="g" d="M26.052 0h4v2.171h-4z"/><text x="26.052" y="1.67" class="h"> ~</text><text x="30.06" y="1.67" class="i"></text><text x="32.064" y="1.67" class="f">brew</text><text x="37.074" y="1.67" class="f">-h</text></symbol><symbol id="4"><text y="1.67" class="f">Example</text><text x="8.016" y="1.67" class="f">usage:</text></symbol><symbol id="5"><text x="2.004" y="1.67" class="f">brew</text><text x="7.014" y="1.67" class="f">search</text><text x="14.028" y="1.67" class="f">[TEXT|/REGEX/]</text></symbol><symbol id="6"><text x="2.004" y="1.67" class="f">brew</text><text x="7.014" y="1.67" class="f">info</text><text x="12.024" y="1.67" class="f">[FORMULA...]</text></symbol><symbol id="7"><text x="2.004" y="1.67" class="f">brew</text><text x="7.014" y="1.67" class="f">install</text><text x="15.03" y="1.67" class="f">FORMULA...</text></symbol><symbol id="8"><text x="2.004" y="1.67" class="f">brew</text><text x="7.014" y="1.67" class="f">update</text></symbol><symbol id="9"><text x="2.004" y="1.67" class="f">brew</text><text x="7.014" y="1.67" class="f">upgrade</text><text x="15.03" y="1.67" class="f">[FORMULA...]</text></symbol><symbol id="10"><text x="2.004" y="1.67" class="f">brew</text><text x="7.014" y="1.67" class="f">uninstall</text><text x="17.034" y="1.67" class="f">FORMULA...</text></symbol><symbol id="11"><text x="2.004" y="1.67" class="f">brew</text><text x="7.014" y="1.67" class="f">list</text><text x="12.024" y="1.67" class="f">[FORMULA...]</text></symbol><symbol id="12"><text y="1.67" class="f">Troubleshooting:</text></symbol><symbol id="13"><text x="2.004" y="1.67" class="f">brew</text><text x="7.014" y="1.67" class="f">config</text></symbol><symbol id="14"><text x="2.004" y="1.67" class="f">brew</text><text x="7.014" y="1.67" class="f">doctor</text></symbol><symbol id="15"><text x="2.004" y="1.67" class="f">brew</text><text x="7.014" y="1.67" class="f">install</text><text x="15.03" y="1.67" class="f">--verbose</text><text x="25.05" y="1.67" class="f">--debug</text><text x="33.066" y="1.67" class="f">FORMULA</text></symbol><symbol id="16"><text y="1.67" class="f">Contributing:</text></symbol><symbol id="17"><text x="2.004" y="1.67" class="f">brew</text><text x="7.014" y="1.67" class="f">create</text><text x="14.028" y="1.67" class="f">[URL</text><text x="19.038" y="1.67" class="f">[--no-fetch]]</text></symbol><symbol id="18"><text x="2.004" y="1.67" class="f">brew</text><text x="7.014" y="1.67" class="f">edit</text><text x="12.024" y="1.67" class="f">[FORMULA...]</text></symbol><symbol id="19"><text y="1.67" class="f">Further</text><text x="8.016" y="1.67" class="f">help:</text></symbol><symbol id="20"><text x="2.004" y="1.67" class="f">brew</text><text x="7.014" y="1.67" class="f">commands</text></symbol><symbol id="21"><text x="2.004" y="1.67" class="f">brew</text><text x="7.014" y="1.67" class="f">help</text><text x="12.024" y="1.67" class="f">[COMMAND]</text></symbol><symbol id="22"><text x="2.004" y="1.67" class="f">man</text><text x="6.012" y="1.67" class="f">brew</text></symbol><symbol id="23"><text x="2.004" y="1.67" class="f">https://docs.brew.sh</text></symbol><symbol id="a"><path fill="transparent" d="M0 0h80v25H0z"/></symbol><symbol id="b"><path fill="#6f7683" d="M0 0h1.102v2.171H0z"/></symbol></defs><path class="a" d="M0 0h80v54.275H0z"/><g style="animation-duration:6.680248s;animation-iteration-count:infinite;animation-name:m;animation-timing-function:steps(1,end)"><svg width="1760"><svg><use xlink:href="#a"/><use xlink:href="#b" x="-.004"/></svg><svg x="80"><use xlink:href="#a"/><use xlink:href="#b" x="-.004"/></svg><svg x="160"><use xlink:href="#a"/><use xlink:href="#b" x="-.004"/></svg><svg x="240"><use xlink:href="#a"/><use xlink:href="#b" x="31.996"/><use xlink:href="#1"/></svg><svg x="320"><use xlink:href="#a"/><use xlink:href="#b" x="31.996"/><use xlink:href="#1"/></svg><svg x="400"><use xlink:href="#a"/><use xlink:href="#b" x="31.996"/><use xlink:href="#1"/></svg><svg x="480"><use xlink:href="#a"/><use xlink:href="#b" x="32.996"/>0<text y="1.67" class="f">pi-dal@pi-dal-MacBookAir</text><path class="g" d="M26.052 0h4v2.171h-4z"/><text x="26.052" y="1.67" class="h"> ~</text><text x="30.06" y="1.67" class="i"></text><text x="32.064" y="1.67" class="f">b</text><text x="33.066" y="1.67" class="j">rew</text><text x="37.074" y="1.67" class="j">-h</text></svg><svg x="560"><use xlink:href="#a"/><use xlink:href="#b" x="33.996"/>0<text y="1.67" class="f">pi-dal@pi-dal-MacBookAir</text><path class="g" d="M26.052 0h4v2.171h-4z"/><text x="26.052" y="1.67" class="h"> ~</text><text x="30.06" y="1.67" class="i"></text><text x="32.064" y="1.67" class="f">br</text><text x="34.068" y="1.67" class="j">ew</text><text x="37.074" y="1.67" class="j">-h</text></svg><svg x="640"><use xlink:href="#a"/><use xlink:href="#b" x="34.996"/>0<text y="1.67" class="f">pi-dal@pi-dal-MacBookAir</text><path class="g" d="M26.052 0h4v2.171h-4z"/><text x="26.052" y="1.67" class="h"> ~</text><text x="30.06" y="1.67" class="i"></text><text x="32.064" y="1.67" class="f">bre</text><text x="35.07" y="1.67" class="j">w</text><text x="37.074" y="1.67" class="j">-h</text></svg><svg x="720"><use xlink:href="#a"/><use xlink:href="#b" x="35.996"/><use xlink:href="#2"/></svg><svg x="800"><use xlink:href="#a"/><use xlink:href="#b" x="36.996"/><use xlink:href="#2"/></svg><svg x="880"><use xlink:href="#a"/><use xlink:href="#b" x="37.996"/>0<text y="1.67" class="f">pi-dal@pi-dal-MacBookAir</text><path class="g" d="M26.052 0h4v2.171h-4z"/><text x="26.052" y="1.67" class="h"> ~</text><text x="30.06" y="1.67" class="i"></text><text x="32.064" y="1.67" class="f">brew</text><text x="37.074" y="1.67" class="f">-</text><text x="38.076" y="1.67" class="j">h</text></svg><svg x="960"><use xlink:href="#a"/><use xlink:href="#b" x="38.996"/><use xlink:href="#3"/></svg><svg x="1040"><use xlink:href="#a"/><use xlink:href="#b" x="38.996"/><use xlink:href="#3"/></svg><svg x="1120"><use xlink:href="#a"/><use xlink:href="#b" x="-.004" y="2.146"/><use xlink:href="#3"/></svg><svg x="1200"><use xlink:href="#a"/><use xlink:href="#b" x="-.004" y="2.146"/><use xlink:href="#3"/></svg><svg x="1280"><use xlink:href="#a"/><use xlink:href="#b" x="-.004" y="52.079"/><use xlink:href="#3"/><use xlink:href="#4" y="2.171"/><use xlink:href="#5" y="4.342"/><use xlink:href="#6" y="6.513"/><use xlink:href="#7" y="8.684"/><use xlink:href="#8" y="10.855"/><use xlink:href="#9" y="13.026"/><use xlink:href="#10" y="15.197"/><use xlink:href="#11" y="17.368"/><use xlink:href="#12" y="21.71"/><use xlink:href="#13" y="23.881"/><use xlink:href="#14" y="26.052"/><use xlink:href="#15" y="28.223"/><use xlink:href="#16" y="32.565"/><use xlink:href="#17" y="34.736"/><use xlink:href="#18" y="36.907"/><use xlink:href="#19" y="41.249"/><use xlink:href="#20" y="43.42"/><use xlink:href="#21" y="45.591"/><use xlink:href="#22" y="47.762"/><use xlink:href="#23" y="49.933"/></svg><svg x="1360"><use xlink:href="#a"/><use xlink:href="#b" x="-.004" y="52.079"/><use xlink:href="#3"/><use xlink:href="#4" y="2.171"/><use xlink:href="#5" y="4.342"/><use xlink:href="#6" y="6.513"/><use xlink:href="#7" y="8.684"/><use xlink:href="#8" y="10.855"/><use xlink:href="#9" y="13.026"/><use xlink:href="#10" y="15.197"/><use xlink:href="#11" y="17.368"/><use xlink:href="#12" y="21.71"/><use xlink:href="#13" y="23.881"/><use xlink:href="#14" y="26.052"/><use xlink:href="#15" y="28.223"/><use xlink:href="#16" y="32.565"/><use xlink:href="#17" y="34.736"/><use xlink:href="#18" y="36.907"/><use xlink:href="#19" y="41.249"/><use xlink:href="#20" y="43.42"/><use xlink:href="#21" y="45.591"/><use xlink:href="#22" y="47.762"/><use xlink:href="#23" y="49.933"/></svg><svg x="1440"><use xlink:href="#a"/><use xlink:href="#b" x="-.004" y="52.079"/><use xlink:href="#3"/><use xlink:href="#4" y="2.171"/><use xlink:href="#5" y="4.342"/><use xlink:href="#6" y="6.513"/><use xlink:href="#7" y="8.684"/><use xlink:href="#8" y="10.855"/><use xlink:href="#9" y="13.026"/><use xlink:href="#10" y="15.197"/><use xlink:href="#11" y="17.368"/><use xlink:href="#12" y="21.71"/><use xlink:href="#13" y="23.881"/><use xlink:href="#14" y="26.052"/><use xlink:href="#15" y="28.223"/><use xlink:href="#16" y="32.565"/><use xlink:href="#17" y="34.736"/><use xlink:href="#18" y="36.907"/><use xlink:href="#19" y="41.249"/><use xlink:href="#20" y="43.42"/><use xlink:href="#21" y="45.591"/><use xlink:href="#22" y="47.762"/><use xlink:href="#23" y="49.933"/></svg><svg x="1520"><use xlink:href="#a"/><use xlink:href="#b" x="31.996" y="52.079"/><use xlink:href="#3"/><use xlink:href="#4" y="2.171"/><use xlink:href="#5" y="4.342"/><use xlink:href="#6" y="6.513"/><use xlink:href="#7" y="8.684"/><use xlink:href="#8" y="10.855"/><use xlink:href="#9" y="13.026"/><use xlink:href="#10" y="15.197"/><use xlink:href="#11" y="17.368"/><use xlink:href="#12" y="21.71"/><use xlink:href="#13" y="23.881"/><use xlink:href="#14" y="26.052"/><use xlink:href="#15" y="28.223"/><use xlink:href="#16" y="32.565"/><use xlink:href="#17" y="34.736"/><use xlink:href="#18" y="36.907"/><use xlink:href="#19" y="41.249"/><use xlink:href="#20" y="43.42"/><use xlink:href="#21" y="45.591"/><use xlink:href="#22" y="47.762"/><use xlink:href="#23" y="49.933"/><use xlink:href="#1" y="52.104"/></svg><svg x="1600"><use xlink:href="#a"/><use xlink:href="#b" x="31.996" y="52.079"/><use xlink:href="#3"/><use xlink:href="#4" y="2.171"/><use xlink:href="#5" y="4.342"/><use xlink:href="#6" y="6.513"/><use xlink:href="#7" y="8.684"/><use xlink:href="#8" y="10.855"/><use xlink:href="#9" y="13.026"/><use xlink:href="#10" y="15.197"/><use xlink:href="#11" y="17.368"/><use xlink:href="#12" y="21.71"/><use xlink:href="#13" y="23.881"/><use xlink:href="#14" y="26.052"/><use xlink:href="#15" y="28.223"/><use xlink:href="#16" y="32.565"/><use xlink:href="#17" y="34.736"/><use xlink:href="#18" y="36.907"/><use xlink:href="#19" y="41.249"/><use xlink:href="#20" y="43.42"/><use xlink:href="#21" y="45.591"/><use xlink:href="#22" y="47.762"/><use xlink:href="#23" y="49.933"/><use xlink:href="#1" y="52.104"/></svg><svg x="1680"><use xlink:href="#a"/><use xlink:href="#b" x="-.004" y="52.079"/><use xlink:href="#4"/><use xlink:href="#5" y="2.171"/><use xlink:href="#6" y="4.342"/><use xlink:href="#7" y="6.513"/><use xlink:href="#8" y="8.684"/><use xlink:href="#9" y="10.855"/><use xlink:href="#10" y="13.026"/><use xlink:href="#11" y="15.197"/><use xlink:href="#12" y="19.539"/><use xlink:href="#13" y="21.71"/><use xlink:href="#14" y="23.881"/><use xlink:href="#15" y="26.052"/><use xlink:href="#16" y="30.394"/><use xlink:href="#17" y="32.565"/><use xlink:href="#18" y="34.736"/><use xlink:href="#19" y="39.078"/><use xlink:href="#20" y="41.249"/><use xlink:href="#21" y="43.42"/><use xlink:href="#22" y="45.591"/><use xlink:href="#23" y="47.762"/><use xlink:href="#1" y="49.933"/></svg></svg></g></g></svg></svg>